# xmcd CD database file
#
# Track frame offsets:
#	150
#	14680
#	26762
#	40212
#	52142
#	69840
#	82155
#	100375
#	111582
#	127815
#
# Disc length: 1845 seconds
#
# Revision: 0
# Processed by: cddbd v1.4PL0 Copyright (c) Steve Scherf et al.
# Submitted via: CDex 1.40Beta9
#
DISCID=8c07330a
DTITLE=Megan Morrison - Small Town Girl
DYEAR=1900
DGENRE=Country
TTITLE0=Small Town Girl
TTITLE1=You Tonight
TTITLE2=Too Hot To Handle
TTITLE3=Between Hello And Goodbye
TTITLE4=Cinderella
TTITLE5=Two Step Too
TTITLE6=Do You Feel The Same
TTITLE7=When I'm In Love
TTITLE8=Hit Me With Your Best Shot
TTITLE9=Because This Day Has Come
EXTD=ID3G: 2
EXTT0=
EXTT1=
EXTT2=
EXTT3=
EXTT4=
EXTT5=
EXTT6=
EXTT7=
EXTT8=
EXTT9=
PLAYORDER=
